<?xml version="1.0" encoding="utf-8"?>
<!-- Generator: Adobe Illustrator 27.6.1, SVG Export Plug-In . SVG Version: 6.00 Build 0)  -->
<svg version="1.1" id="Layer_1" xmlns="http://www.w3.org/2000/svg" xmlns:xlink="http://www.w3.org/1999/xlink" x="0px" y="0px"
	 viewBox="0 0 16 16" style="enable-background:new 0 0 16 16;" xml:space="preserve">
<style type="text/css">
	.st0{fill:#FCB913;}
</style>
<path class="st0" d="M8,0C3.59,0,0,3.59,0,8s3.59,8,8,8s8-3.59,8-8S12.41,0,8,0z M9.39,9.39c-0.7,0-1.26-0.56-1.26-1.26
	S8.7,6.87,9.39,6.87c0.7,0,1.26,0.56,1.26,1.26S10.09,9.39,9.39,9.39z M10.67,5.52c-0.7,0-1.26-0.56-1.26-1.26S9.97,3,10.67,3
	c0.7,0,1.26,0.56,1.26,1.26S11.37,5.52,10.67,5.52z M13.19,8.79c-0.7,0-1.26-0.56-1.26-1.26s0.56-1.26,1.26-1.26
	c0.7,0,1.26,0.56,1.26,1.26S13.89,8.79,13.19,8.79z"/>
</svg>
