<?xml version="1.0" encoding="utf-8"?>
<!-- Generator: Adobe Illustrator 27.6.1, SVG Export Plug-In . SVG Version: 6.00 Build 0)  -->
<svg version="1.1" id="Layer_1" xmlns="http://www.w3.org/2000/svg" xmlns:xlink="http://www.w3.org/1999/xlink" x="0px" y="0px"
	 viewBox="0 0 16 16" style="enable-background:new 0 0 16 16;" xml:space="preserve">
<style type="text/css">
	.st0{fill:#C04627;}
	.st1{fill:#FCB913;}
</style>
<path class="st0" d="M13.31,3.2c2.64,3.95,0.85,10.81-5.35,10.81c-4.94,0-7.07-4.34-6.41-8.11C1.21,6.75,1.01,7.67,1.01,8.64
	c0,4.06,3.3,7.36,7.36,7.36s7.36-3.3,7.36-7.36C15.73,6.48,14.79,4.55,13.31,3.2z"/>
<path class="st1" d="M7.63,0C3.57,0,0.27,3.3,0.27,7.36s3.3,7.36,7.36,7.36s7.36-3.3,7.36-7.36S11.68,0,7.63,0z M8.91,8.64
	c-0.64,0-1.16-0.52-1.16-1.16s0.52-1.16,1.16-1.16c0.64,0,1.16,0.52,1.16,1.16S9.55,8.64,8.91,8.64z M10.08,5.08
	c-0.64,0-1.16-0.52-1.16-1.16s0.52-1.16,1.16-1.16c0.64,0,1.16,0.52,1.16,1.16S10.72,5.08,10.08,5.08z M12.4,8.09
	c-0.64,0-1.16-0.52-1.16-1.16s0.52-1.16,1.16-1.16c0.64,0,1.16,0.52,1.16,1.16S13.04,8.09,12.4,8.09z"/>
</svg>
